# xmcd CD database file
#
# Track frame offsets:
#	150
#	15535
#	36585
#	54724
#	76550
#	99649
#	120512
#	147406
#	164573
#	186116
#
# Disc length: 2628 seconds
#
# Revision: 2
# Processed by: cddbd v1.5.2PL0 Copyright (c) Steve Scherf et al.
# Submitted via: jetAudio 5
#
DISCID=820a420a
DTITLE=강인오 - My World
DYEAR=1900
DGENRE=
TTITLE0=트랙 1
TTITLE1=트랙 2
TTITLE2=트랙 3
TTITLE3=트랙 4
TTITLE4=트랙 5
TTITLE5=트랙 6
TTITLE6=트랙 7
TTITLE7=트랙 8
TTITLE8=트랙 9
TTITLE9=트랙 10
EXTD=
EXTT0=
EXTT1=
EXTT2=
EXTT3=
EXTT4=
EXTT5=
EXTT6=
EXTT7=
EXTT8=
EXTT9=
PLAYORDER=
